<?xml version="1.0" encoding="UTF-8"?>
<svg width="56px" height="42px" viewBox="0 0 56 42" version="1.1" xmlns="http://www.w3.org/2000/svg" xmlns:xlink="http://www.w3.org/1999/xlink">
    <title>Group 583</title>
    <g id="Symbols" stroke="none" stroke-width="1" fill="none" fill-rule="evenodd" stroke-linecap="round" stroke-linejoin="round">
        <g id="icono-/-contactos" transform="translate(-23.000000, -30.000000)" stroke="#E5702A" stroke-width="1.5">
            <g id="Group-583" transform="translate(24.143803, 31.676704)">
                <path d="M40.3770873,30.1994772 L53.4278072,30.1994772 L53.4278072,30.1971542 C53.4278072,27.586081 51.6506978,25.3118456 49.1186072,24.6776614 L44.5399371,23.5324131 L44.0660413,21.6345067 C47.3298827,21.1791951 48.9838721,20.2012041 48.9838721,20.2012041 C48.9838721,20.2012041 46.7630661,18.5332766 46.7630661,12.4237371 C46.7630661,6.31187449 44.9092971,5.75667298 43.9847356,5.75667298 L43.4295341,5.75667298 C42.6188005,4.94826243 42.17975,4.64626998 40.6512036,4.64626998 C39.1249802,4.64626998 34.541664,6.31187449 34.541664,12.4237371 C34.541664,14.0010668 34.3906678,15.2717581 34.169981,16.3055015" id="Stroke-173"></path>
                <path d="M32.8312252,30.9588721 L25.7529868,29.1887317 L25.0212359,26.2570819 C30.0645098,25.5508842 32.6221536,24.0385989 32.6221536,24.0385989 C32.6221536,24.0385989 29.1887317,21.4623711 29.1887317,12.0192995 C29.1887317,2.57622789 26.3267725,1.71671092 24.8957929,1.71671092 L24.0362759,1.71671092 C22.7841688,0.464603768 22.1058473,0 19.7456601,0 C17.38315,0 10.3002655,2.57622789 10.3002655,12.0192995 C10.3002655,21.4623711 6.86684369,24.0385989 6.86684369,24.0385989 C6.86684369,24.0385989 9.39196517,25.5555302 14.4677613,26.259405 L13.7360104,29.1887317 L6.65777199,30.9588721 C2.74348525,31.936863 0,35.4539135 0,39.4866742 L0,39.4913203 L39.4913203,39.4913203 L39.4913203,39.4866742 C39.4913203,35.4539135 36.745512,31.936863 32.8312252,30.9588721 L32.8312252,30.9588721 Z" id="Stroke-174"></path>
            </g>
        </g>
    </g>
</svg>