<?xml version="1.0" encoding="UTF-8"?>
<svg width="69px" height="69px" viewBox="0 0 69 69" version="1.1" xmlns="http://www.w3.org/2000/svg" xmlns:xlink="http://www.w3.org/1999/xlink">
    <title>Group 300</title>
    <g id="Symbols" stroke="none" stroke-width="1" fill="none" fill-rule="evenodd" stroke-linecap="round" stroke-linejoin="round">
        <g id="icono-/-resultados" transform="translate(-16.000000, -17.000000)" stroke="#243042">
            <g id="Group-300" transform="translate(17.000000, 18.000000)">
                <path d="M37.8695652,52.4347193 C37.8695652,44.3917713 44.3918696,37.8694386 52.4347826,37.8694386 C60.4776957,37.8694386 67,44.3917713 67,52.4347193 C67,60.4776673 60.4776957,67 52.4347826,67 C44.3918696,67 37.8695652,60.4776673 37.8695652,52.4347193 L37.8695652,52.4347193 Z" id="Stroke-342"></path>
                <polyline id="Stroke-343" points="43.6956522 52.4347193 49.5217391 58.2608316 61.173913 46.608607"></polyline>
                <polyline id="Stroke-344" points="55.1468261 32.2446185 64.0869565 23.3044491 42.2245652 20.4059583 32.0434783 0 21.8623913 20.4059583 0 23.3044491 16.0217391 39.3262579 11.6521739 61.174179 32.0434783 50.9784825 32.1163043 51.0134392"></polyline>
            </g>
        </g>
    </g>
</svg>