<svg width="102" height="102" viewBox="0 0 102 102" xmlns="http://www.w3.org/2000/svg">
    <g stroke="#000" fill="none" fill-rule="evenodd" stroke-linecap="round" stroke-linejoin="round">
        <path d="M24.42 77.534V49.959h52.85v27.575H56.59V49.959M24.42 59.15h52.85M56.59 68.342h20.68M65.782 54.554h2.298M65.782 63.746h2.298M65.782 72.937h2.298"/>
        <path d="m33.611 49.96-5.745-12.64 13.788-8.042M47.398 26.98a2.299 2.299 0 0 0-4.595 0l-2.298 6.894h9.191l-2.298-6.894h0z"/>
        <path d="M29.015 37.32a1.15 1.15 0 1 1-2.298 0 1.15 1.15 0 0 1 2.298 0h0z"/>
    </g>
</svg>
