<svg width="102" height="102" viewBox="0 0 102 102" xmlns="http://www.w3.org/2000/svg">
    <g stroke="#000" fill="none" fill-rule="evenodd" stroke-linecap="round" stroke-linejoin="round">
        <path d="M58.454 83.94h24.16c.764 0 1.386-.625 1.386-1.396v-4.988c0-.378-.152-.742-.422-1.005C77.5 70.609 60.72 64.246 60.72 64.246c-.02 0-.04.006-.058.006M41.358 64.252c-.029 0-.055-.005-.078-.005 0 0-16.645 6.23-22.858 12.304A1.41 1.41 0 0 0 18 77.556v4.989c0 .77.622 1.395 1.388 1.395h23.99M58.89 59.769c.156-.318.098-4.359.098-4.726 2.82-2.76 4.716-6.784 5.009-10.808h.046c2.75 0 3.536-4.018 1.04-5.208.517-1.608.801-3.336.801-5.135C65.884 25.117 59.221 18 51 18c-8.218 0-14.879 7.117-14.879 15.892 0 1.8.284 3.527.798 5.135-2.502 1.193-1.707 5.208 1.038 5.208h.046c.29 3.972 2.145 7.935 4.902 10.693 0 .367-.063 4.532.1 4.847M55.896 66.044c1.606.76-.344 4.8-1.474 6.857a21.96 21.96 0 0 0-6.807.063c-1.127-2.042-2.926-5.817-1.512-6.92 0 0 4.191-2.65 9.793 0zM53.644 77.036l.06.632.723 6.332M47.571 84l.777-6.906"/>
    </g>
</svg>
