<svg width="102" height="102" viewBox="0 0 102 102" xmlns="http://www.w3.org/2000/svg">
    <g stroke="#000" fill="none" fill-rule="evenodd" stroke-linecap="round" stroke-linejoin="round">
        <path d="M76.125 51v-1.478h8.87l-8.87-8.87V17H64.3v11.826L53.517 18.044A3.557 3.557 0 0 0 50.997 17h-.002c-.947 0-1.853.375-2.52 1.044L17 49.522h8.867V85H56.91"/>
        <path d="M49.519 73.174h-8.87V52.478h20.696M55.436 70.217c0-8.163 6.617-14.782 14.782-14.782C78.38 55.435 85 62.055 85 70.217 85 78.38 78.38 85 70.218 85c-8.165 0-14.782-6.62-14.782-14.783h0zM64.305 70.217h11.826M70.218 64.304V76.13"/>
        <path d="M49.519 73.174h-8.87V52.478h20.696"/>
    </g>
</svg>
