<svg width="50" height="50" viewBox="0 0 102 102" xmlns="http://www.w3.org/2000/svg">
    <g stroke="#e5702a" fill="none" fill-rule="evenodd" stroke-linecap="round" stroke-linejoin="round">
        <path d="M78 63.474a5.683 5.683 0 0 1-5.684 5.684 5.683 5.683 0 0 1-5.684-5.684 5.683 5.683 0 0 1 5.684-5.685A5.683 5.683 0 0 1 78 63.474h0z"/>
        <path d="m69.474 69.158-2.842 14.21 5.684-2.842L78 83.368l-2.842-14.21M60.947 77.684H24V35.053L41.053 18h31.263v34.105"/>
        <path d="M24 35.053h17.053V18M51 27.947h14.211M29.684 70.579h15.632M52.421 36.474h11.368M29.684 62.053h29.842M29.684 47.392a2.391 2.391 0 1 1 2.392 2.391 2.391 2.391 0 1 1-2.392 2.392M39.25 47.392a2.391 2.391 0 1 1 4.784 0c0 1.53-.61 2.999-1.692 4.083l-3.091 3.092h4.783M53.6 52.175a2.391 2.391 0 1 0-4.782 0 2.391 2.391 0 0 0 4.783 0z"/>
        <path d="M48.817 52.175v-2.392A4.783 4.783 0 0 1 53.601 45M64.761 51.378h-6.377L63.167 45v9.567"/>
    </g>
</svg>
