<svg width="102" height="102" viewBox="0 0 102 102" xmlns="http://www.w3.org/2000/svg">
    <g stroke="#e5702a" fill="none" fill-rule="evenodd" stroke-linecap="round" stroke-linejoin="round">
        <path d="M51 6C26.148 6 6 26.148 6 51a44.802 44.802 0 0 0 7.65 25.106L6 96l20.461-7.31C33.524 93.3 41.941 96 51 96c24.852 0 45-20.148 45-45S75.852 6 51 6h0z"/>
        <path d="M41.217 60.783c5.095 5.094 16.306 11.739 21.522 11.739 5.216 0 9.783-4.485 9.783-7.826v-3.913s-4.81-2.364-7.826-3.913c-3.017-1.55-7.826 3.913-7.826 3.913s-5.502-1.59-9.783-5.87c-4.28-4.28-5.87-9.783-5.87-9.783s5.463-4.809 3.913-7.826a635.756 635.756 0 0 1-3.913-7.826h-3.913c-3.341 0-7.826 4.567-7.826 9.783 0 5.216 6.645 16.427 11.74 21.522h0z"/>
    </g>
</svg>
