<svg width="102" height="102" viewBox="0 0 102 102" xmlns="http://www.w3.org/2000/svg">
    <g stroke="#000" fill="none" fill-rule="evenodd" stroke-linecap="round" stroke-linejoin="round">
        <path d="M36.913 49.435H21.26A6.26 6.26 0 0 0 15 55.696v25.043A6.26 6.26 0 0 0 21.26 87h59.478A6.26 6.26 0 0 0 87 80.74V55.695a6.26 6.26 0 0 0-6.26-6.26H68.216"/>
        <path d="M79.446 16.294 30.652 65.087l-6.26 12.522 12.52-6.261 48.794-48.794a4.412 4.412 0 0 0 0-6.242l-.018-.018a4.412 4.412 0 0 0-6.242 0h0z"/>
        <path d="M83.869 30.653 71.347 18.13 55.695 33.783M30.652 65.087l6.261 6.261M58.826 58.826h18.782M77.608 68.218H49.434M77.608 77.609H40.043"/>
    </g>
</svg>
