<svg width="102" height="102" viewBox="0 0 102 102" xmlns="http://www.w3.org/2000/svg">
    <g fill="none" fill-rule="evenodd">
        <path d="m79.527 75.812-10.065-2.525-1.15-4.609c2.805-2.525 4.679-6.328 4.98-10.107h.118c1.233 0 2.27-.922 2.422-2.15l.612-4.904a2.445 2.445 0 0 0-2.396-2.751l.297-6.136 1.223-1.227c1.58-1.69 1.58-3.707 0-6.132-1.59-2.436-4.358-3.68-8.231-3.68-2.049 0-5.604.11-8.869 2.455-9.84.097-10.987 4.214-10.987 8.584 0 1.537.575 6.13.575 6.13h-.25a2.446 2.446 0 0 0-2.423 2.757l.608 4.904a2.447 2.447 0 0 0 2.422 2.15h.4c.29 3.68 2.069 7.383 4.748 9.905l-1.196 4.811-10.068 2.525c-5.564 1.397-9.47 6.421-9.47 12.181V88H89v-.007c0-5.76-3.906-10.784-9.473-12.18zM13 64.774h29.739" stroke="#000" stroke-linecap="round" stroke-linejoin="round"/>
        <path d="M47.298 29.972c.017-.737-.25-1.54-.826-2.42-1.12-1.721-3.073-2.597-5.805-2.597-1.448 0-3.959.076-6.259 1.732-6.949.07-7.762 2.976-7.762 6.059 0 1.088.41 4.33.41 4.33h-.178c-1.038 0-1.84.912-1.712 1.944l.433 3.464c.106.863.84 1.517 1.708 1.517h.281c.208 2.595 1.464 5.21 3.354 6.988l-.846 3.398-7.104 1.785c-3.929.986-6.688 4.53-6.688 8.597v.004h27.201" stroke="#000" stroke-linecap="round" stroke-linejoin="round"/>
        <path d="M85.057 70.895c.4-.856.638-1.799.638-2.804V21.636c0-3.663-2.96-6.636-6.609-6.636H19.61C15.958 15 13 17.973 13 21.636v46.455c0 3.666 2.958 6.636 6.609 6.636H31.59" stroke="#000" stroke-linecap="round" stroke-linejoin="round"/>
        <path d="M51 21.637c0 .916-.74 1.66-1.653 1.66a1.656 1.656 0 0 1-1.652-1.66c0-.915.74-1.659 1.652-1.659.912 0 1.653.744 1.653 1.66" fill="#000"/>
    </g>
</svg>
