<svg width="102" height="102" viewBox="0 0 102 102" xmlns="http://www.w3.org/2000/svg">
    <g stroke="#000" fill="none" fill-rule="evenodd" stroke-linecap="round" stroke-linejoin="round">
        <path d="M54.947 80.684H18V38.053L35.053 21h31.263v34.105"/>
        <path d="M18 38.053h17.053V21M43 35.579h14.211M24 45.579 57 46M23.684 73.579h15.632M24 55.579 45 56M23.684 65.053h29.842M57 76.61l1.972-7.888L77.47 50.225A4.18 4.18 0 0 1 80.425 49h.004a4.18 4.18 0 0 1 4.181 4.181v.004a4.18 4.18 0 0 1-1.224 2.956L64.889 74.638 57 76.61h0zM74.75 52.944l5.916 5.917"/>
        <path d="M58.972 68.722s2.033.06 3.945 1.972c1.91 1.91 1.972 3.944 1.972 3.944"/>
    </g>
</svg>
