<svg width="102" height="102" viewBox="0 0 102 102" xmlns="http://www.w3.org/2000/svg">
    <g fill="none" fill-rule="evenodd">
        <g stroke="#e5702a" stroke-linecap="round" stroke-linejoin="round">
            <path d="M75.386 51v-1.435h8.61l-8.61-8.608V18H63.908v11.478L53.443 19.013A3.452 3.452 0 0 0 50.998 18h-.003c-.919 0-1.798.364-2.445 1.013L18 49.565h8.607V84h30.129"/>
            <path d="M49.562 72.522h-8.61V52.435h20.089M55.305 69.652c0-7.923 6.422-14.348 14.348-14.348C77.575 55.304 84 61.73 84 69.652 84 77.575 77.575 84 69.653 84c-7.926 0-14.348-6.425-14.348-14.348h0z"/>
            <path d="m70.078 65.725 3.099-3.106a2.844 2.844 0 0 1 4.017 0 2.86 2.86 0 0 1 0 4.026l-4.52 4.53a2.844 2.844 0 0 1-4.016 0"/>
            <path d="m69.634 74.221-3.098 3.106a2.844 2.844 0 0 1-4.017 0 2.86 2.86 0 0 1 0-4.026l4.519-4.529a2.844 2.844 0 0 1 4.016 0M49.562 72.522h-8.61V52.435h20.089"/>
        </g>
    </g>
</svg>
