<svg width="102" height="102" viewBox="0 0 102 102" xmlns="http://www.w3.org/2000/svg">
    <g stroke="#243042" fill="none" fill-rule="evenodd" stroke-linecap="round" stroke-linejoin="round">
        <path d="M76.609 44.804c0 17.566-14.239 31.805-31.805 31.805S13 62.37 13 44.804 27.238 13 44.804 13 76.61 27.238 76.61 44.804h0zM90 90 67.402 67.402"/>
        <path d="M62.373 62.728c-.308-.108-.606-.238-.927-.318l-9-2.25-.933-3.73c6.414-.897 9.665-2.819 9.665-2.819s-4.366-3.277-4.366-15.286c0-12.005-3.639-13.1-5.457-13.1h-1.091c-1.594-1.59-2.457-2.183-5.46-2.183S32.795 26.32 32.795 38.325c0 12.009-4.366 15.286-4.366 15.286s3.211 1.929 9.666 2.826l-.931 3.723-9.002 2.25c-.322.08-.616.21-.928.318"/>
    </g>
</svg>
