<svg width="102" height="102" viewBox="0 0 102 102" xmlns="http://www.w3.org/2000/svg">
    <g fill="none" fill-rule="evenodd" stroke-linecap="round" stroke-linejoin="round">
        <path d="M65.807 48.493c-1 1-2.622 1-3.622 0-1-.998-1-2.621 0-3.62a2.557 2.557 0 0 1 3.622 0 2.562 2.562 0 0 1 0 3.62zM52.216 65.33l5.384-5.3c4.118 1.832 9.125 1.094 12.51-2.238a10.889 10.889 0 0 0 0-15.567c-4.367-4.299-11.448-4.299-15.815 0a10.87 10.87 0 0 0-2.586 11.56L29 76.139l1.647 3.83 6.45-.233 1.468-5.424 6.303-1.212 1.129-7.92 6.219.15z" stroke="#E5702A"/>
        <path d="M17 49.522h5.912V85h56.173V49.522H85L53.522 18.044A3.567 3.567 0 0 0 51.003 17h-.006c-.944 0-1.853.375-2.52 1.044L17 49.522z" opacity=".1" stroke="#000"/>
    </g>
</svg>
