<svg width="102" height="102" viewBox="0 0 102 102" xmlns="http://www.w3.org/2000/svg">
    <g stroke="#000" fill="none" fill-rule="evenodd" stroke-linecap="round" stroke-linejoin="round">
        <path d="M78 63.474a5.683 5.683 0 0 1-5.684 5.684 5.683 5.683 0 0 1-5.684-5.684 5.683 5.683 0 0 1 5.684-5.685A5.683 5.683 0 0 1 78 63.474h0z"/>
        <path d="m69.474 69.158-2.842 14.21 5.684-2.842L78 83.368l-2.842-14.21M60.947 77.684H24V35.053L41.053 18h31.263v34.105"/>
        <path d="M24 35.053h17.053V18M29.684 46.421h14.211M29.684 57.789h31.263M29.684 69.158h11.369M64.026 38.132c-.172 2.04-2.436 2.605-5.205 2.605-2.879 0-5.216-1.748-5.216-3.908v-7.816c0-2.16 2.337-3.908 5.216-3.908 2.77 0 5.033.566 5.205 2.606M51 30.316h7.816M51 35.526h7.816"/>
    </g>
</svg>
