<svg width="50" height="50" viewBox="0 0 102 102" xmlns="http://www.w3.org/2000/svg">
    <g stroke="#000" fill="none" fill-rule="evenodd" stroke-linecap="round" stroke-linejoin="round">
        <path d="m73.284 61.304 4.698.876V26.624l-14.348-2.397-13.852 6.33-11.678-5.337-13.911 5.236V66.01l13.91-5.235 11.144 4.986M38.104 32.058v22.565M49.782 36.426v8.607M63.883 30.456V41.86"/>
        <path d="M70.202 57.423c0 5.405-9.84 20.276-9.84 20.276S50.52 62.828 50.52 57.423c0-5.405 4.407-9.786 9.842-9.786 5.436 0 9.84 4.381 9.84 9.786z"/>
        <path d="M60.361 59.134a2.426 2.426 0 0 1-2.434-2.418 2.428 2.428 0 0 1 2.434-2.423 2.428 2.428 0 0 1 2.435 2.423 2.426 2.426 0 0 1-2.435 2.418z"/>
    </g>
</svg>
