<svg width="102" height="102" viewBox="0 0 102 102" xmlns="http://www.w3.org/2000/svg">
    <g stroke="#e5702a" fill="none" fill-rule="evenodd" stroke-linecap="round" stroke-linejoin="round">
        <path d="m41.217 80.348 3.913-15.652 36.7-36.7a8.28 8.28 0 0 1 5.867-2.43h.007A8.295 8.295 0 0 1 96 33.86v.008a8.31 8.31 0 0 1-2.43 5.865l-36.7 36.7-15.653 3.914zM76.435 33.391 88.174 45.13"/>
        <path d="M45.13 64.696s4.035.121 7.827 3.913c3.791 3.791 3.913 7.826 3.913 7.826"/>
        <path d="M76.435 56.87v35.217c0 2.16-1.75 3.913-3.913 3.913H9.913A3.912 3.912 0 0 1 6 92.087v-78.26c0-2.16 1.75-3.914 3.913-3.914h62.609a3.912 3.912 0 0 1 3.913 3.913v19.565"/>
        <path d="M21.652 21.652c0 2.16-1.749 3.913-3.913 3.913a3.912 3.912 0 0 1-3.913-3.913c0-2.16 1.75-3.913 3.913-3.913a3.912 3.912 0 0 1 3.913 3.913zM37.304 21.652c0 2.16-1.749 3.913-3.913 3.913a3.912 3.912 0 0 1-3.913-3.913c0-2.16 1.75-3.913 3.913-3.913a3.912 3.912 0 0 1 3.913 3.913zM52.957 21.652c0 2.16-1.75 3.913-3.914 3.913a3.912 3.912 0 0 1-3.913-3.913c0-2.16 1.75-3.913 3.913-3.913a3.912 3.912 0 0 1 3.914 3.913zM68.609 21.652c0 2.16-1.75 3.913-3.913 3.913a3.912 3.912 0 0 1-3.913-3.913c0-2.16 1.749-3.913 3.913-3.913a3.912 3.912 0 0 1 3.913 3.913zM17.739 17.739V6M33.391 17.739V6M49.043 17.739V6M64.696 17.739V6"/>
    </g>
</svg>
