<svg width="102" height="102" viewBox="0 0 102 102" xmlns="http://www.w3.org/2000/svg">
    <g stroke="#000" fill="none" fill-rule="evenodd" stroke-linecap="round" stroke-linejoin="round">
        <path d="m66.038 62.366-7.504-6.339M59.144 66.206l-6.117-5.035M25.746 52.903c2.179 6.293 19.706 19.915 19.706 19.915 4.229 3.598 8.051-1.892 4.576-4.852l-2.666-2.6"/>
        <path d="m47.361 65.366 7.249 6.329c4.172 3.551 8.236-2.238 4.793-5.173l1.828 1.557c3.644 3.101 8.44-2.621 4.807-5.715l.28.24c3.647 3.104 8.443-2.618 4.81-5.712L53.184 42.178s-3.461 1.331-4.8.947c0 0-5.167 7.97-8.944 5.201-3.776-2.77 0-14.563 10.619-16.247 0 0 4.779-1.37 16.483 4.693l4.338-1.321M11 56.487l12.717 3.622 7.459-26.487L18.459 30zM91 57.194l-12.717 3.622-7.459-26.487 12.717-3.622z"/>
        <path d="M30.672 35.406s.62-1.124 14.105-1.42M72.286 58.772s3.342.873 5.097-1.146"/>
    </g>
</svg>
