<svg width="102" height="102" viewBox="0 0 102 102" xmlns="http://www.w3.org/2000/svg">
    <g stroke="#e5702a" fill="none" fill-rule="evenodd" stroke-linecap="round" stroke-linejoin="round">
        <path d="m49.61 32.841 12.418-12.499c4.427-4.456 11.668-4.456 16.095 0 4.425 4.457 4.425 11.746 0 16.202L60.016 54.771c-4.427 4.457-11.668 4.457-16.096 0"/>
        <path d="M47.833 67.034 35.416 79.533c-4.427 4.456-11.668 4.456-16.096 0-4.427-4.457-4.427-11.746 0-16.202l18.108-18.227c4.427-4.457 11.668-4.457 16.095 0M72.79 58.41c-7.296 0-13.207 5.95-13.207 13.293C59.583 79.048 65.494 85 72.79 85 80.085 85 86 79.048 86 71.703c0-7.343-5.915-13.293-13.21-13.293zM72.791 63.996v15.417M65.133 71.705H80.45"/>
    </g>
</svg>
