<svg width="102" height="102" viewBox="0 0 102 102" xmlns="http://www.w3.org/2000/svg">
    <g stroke="#e5702a" fill="none" fill-rule="evenodd" stroke-linecap="round" stroke-linejoin="round">
        <path d="M28.222 46.444c6.56 12.893 14.441 20.728 27.334 27.334l10.978-8.291a4.53 4.53 0 0 1 4.647-1.094 51.965 51.965 0 0 0 16.263 2.597A4.569 4.569 0 0 1 92 71.546v15.898A4.569 4.569 0 0 1 87.444 92C44.668 92 10 57.332 10 14.556A4.569 4.569 0 0 1 14.556 10H30.5a4.569 4.569 0 0 1 4.556 4.556c0 5.694.91 11.16 2.596 16.263a4.572 4.572 0 0 1-1.139 4.647l-8.29 10.978h0zM60.111 10C77.723 10 92 24.277 92 41.889M60.111 28.222c7.549 0 13.667 6.118 13.667 13.667"/>
    </g>
</svg>
