<svg width="102" height="102" viewBox="0 0 102 102" xmlns="http://www.w3.org/2000/svg">
    <g stroke="#e5702a" fill="none" fill-rule="evenodd" stroke-linecap="round" stroke-linejoin="round">
        <path d="M78 63.474a5.683 5.683 0 0 1-5.684 5.684 5.683 5.683 0 0 1-5.684-5.684 5.683 5.683 0 0 1 5.684-5.685A5.683 5.683 0 0 1 78 63.474h0z"/>
        <path d="m69.474 69.158-2.842 14.21 5.684-2.842L78 83.368l-2.842-14.21M60.947 77.684H24V35.053L41.053 18h31.263v34.105"/>
        <path d="M24 35.053h17.053V18M51 27.947h14.211M29.684 70.579h15.632M35.97 61.39l10.342-8.703a9.836 9.836 0 0 1-2.293-6.328c0-5.46 4.425-9.885 9.885-9.885s9.885 4.426 9.885 9.885c0 5.46-4.425 9.885-9.885 9.885a9.84 9.84 0 0 1-6.328-2.293l-8.703 10.342a2.053 2.053 0 1 1-2.903-2.904h0z"/>
    </g>
</svg>
