<svg width="102" height="102" viewBox="0 0 102 102" xmlns="http://www.w3.org/2000/svg">
    <g stroke="currentColor" fill="none" fill-rule="evenodd" stroke-linecap="round" stroke-linejoin="round">
        <path d="M65.957 44.584h4.646v-9.292h-4.646zM54.342 44.584h4.646v-9.292h-4.646zM65.957 58.522h4.646V49.23h-4.646zM54.342 58.522h4.646V49.23h-4.646zM65.957 72.46h4.646v-9.292h-4.646zM54.342 72.46h4.646v-9.292h-4.646zM28.789 58.522h4.646V49.23h-4.646zM40.404 58.522h4.646V49.23h-4.646zM28.789 72.46h4.646v-9.292h-4.646zM40.404 72.46h4.646v-9.292h-4.646z"/>
        <path d="M47.373 23.677V38.46l2.323-.846v39.491h27.876V32.97z"/>
        <path d="M24.143 77.106h25.553V37.615l-25.553 9.292z"/>
    </g>
</svg>
