<svg width="102" height="102" viewBox="0 0 102 102" xmlns="http://www.w3.org/2000/svg">
    <g stroke="#e5702a" fill="none" fill-rule="evenodd" stroke-linecap="round" stroke-linejoin="round">
        <path d="M64.52 61.876h13.052v-.002a5.69 5.69 0 0 0-4.31-5.52l-4.578-1.145-.474-1.898c3.264-.455 4.918-1.433 4.918-1.433s-2.221-1.668-2.221-7.778c0-6.111-1.854-6.667-2.778-6.667h-.556c-.81-.808-1.25-1.11-2.778-1.11-1.526 0-6.11 1.666-6.11 7.777 0 1.578-.15 2.848-.371 3.882M56.975 62.636l-7.078-1.77-.732-2.932c5.043-.706 7.601-2.219 7.601-2.219s-3.433-2.576-3.433-12.019-2.862-10.303-4.293-10.303h-.86c-1.252-1.252-1.93-1.716-4.29-1.716-2.363 0-9.446 2.576-9.446 12.019s-3.433 12.02-3.433 12.02 2.525 1.516 7.6 2.22l-.731 2.93-7.078 1.77a8.789 8.789 0 0 0-6.658 8.527v.005h39.491v-.005a8.791 8.791 0 0 0-6.66-8.527h0z"/>
    </g>
</svg>
