<svg width="102" height="102" viewBox="0 0 102 102" xmlns="http://www.w3.org/2000/svg">
    <g stroke="#000" fill="none" fill-rule="evenodd" stroke-linecap="round" stroke-linejoin="round">
        <path d="M30.104 59.705c4.475 0 8.104-3.656 8.104-8.167 0-4.511-3.63-8.17-8.104-8.17-4.474 0-8.104 3.659-8.104 8.17 0 4.51 3.63 8.167 8.104 8.167zM71.896 30.337C76.37 30.337 80 26.68 80 22.17c0-4.51-3.63-8.17-8.104-8.17-4.475 0-8.104 3.66-8.104 8.17 0 4.511 3.63 8.167 8.104 8.167zM71.896 89C76.37 89 80 85.344 80 80.833c0-4.51-3.63-8.17-8.104-8.17-4.475 0-8.104 3.66-8.104 8.17 0 4.511 3.63 8.167 8.104 8.167zM36.7 56.272l28.597 19.825M65.203 26.768 36.779 46.905"/>
    </g>
</svg>
