<svg width="102" height="102" viewBox="0 0 102 102" xmlns="http://www.w3.org/2000/svg">
    <g stroke="#e5702a" fill="none" fill-rule="evenodd" stroke-linecap="round" stroke-linejoin="round">
        <path d="m66.05 48.034.664-.348c.61-.316.847-1.07.528-1.683L56.181 24.8a1.245 1.245 0 0 0-1.683-.529L24.852 39.733a1.25 1.25 0 0 0-.528 1.686l11.06 21.204c.318.61 1.073.846 1.684.529l.888-.464"/>
        <path d="M37.86 47.83a3.348 3.348 0 0 0 1.42-4.521 3.35 3.35 0 1 0-1.42 4.52zM43.945 50.974l1.428-9.38 6.782 3.291.921-10.721 5.98 3.135M58.583 73.051a6.024 6.024 0 0 1-6.017-6.015c0-3.32 2.699-6.02 6.017-6.02 3.321 0 6.018 2.7 6.018 6.02a6.022 6.022 0 0 1-6.018 6.015z"/>
        <path d="M61.57 51.637c2.893 0 3.921 1.56 4.13 4.627h8.544c2.537 0 3.216 2.64 3.299 3.828l.029 14.033c0 2.518-2.15 3.447-3.316 3.558l.016.053H45.177c-1.136 0-1.964-.398-2.586-1.093-.861-.96-.757-2.25-.757-2.552V60.092c0-2.873 2.171-3.773 3.452-3.83h6.182c.21-3.066 1.24-4.625 4.13-4.625h5.972z"/>
    </g>
</svg>
