<svg width="102" height="102" viewBox="0 0 102 102" xmlns="http://www.w3.org/2000/svg">
    <g stroke="#000" fill="none" fill-rule="evenodd" stroke-linecap="round" stroke-linejoin="round">
        <path d="M73.3 44.294v32.365H23.995M70.952 42.117V27.354h-11.74v4.785"/>
        <path d="m31.158 41.125 19.837-16.042 26.882 23.086M41.478 48.226v9.735M41.512 67.97h9.511M37.49 67.97c0 2.134-1.673 3.864-3.74 3.864-2.065 0-3.742-1.73-3.742-3.865 0-2.136 1.677-3.864 3.743-3.864s3.74 1.728 3.74 3.864zM62.432 67.97c0 2.134-1.674 3.864-3.74 3.864-2.066 0-3.743-1.73-3.743-3.865 0-2.136 1.677-3.864 3.743-3.864s3.74 1.728 3.74 3.864z"/>
        <path d="M66.307 67.97h1.664c-.164-9.922-7.846-9.798-10.675-10.012-.458-.033-.568-.335-.684-.793-.6-2.397-3.09-9.016-12.04-8.969-.227 0-2.281 0-2.502.007-10.692.324-12.134 6.84-12.317 9.072-.035.437-.359.747-.767.866-4.729 1.372-4.536 9.828-4.536 9.828h1.343M29.344 57.959h27.951"/>
    </g>
</svg>
