<svg width="102" height="102" viewBox="0 0 102 102" xmlns="http://www.w3.org/2000/svg">
    <g stroke="#000" fill="none" fill-rule="evenodd" stroke-linecap="round" stroke-linejoin="round">
        <path d="M60.497 74.87c-3.373-1.311-7.115-2.942-7.434-3.957V69.85c.703-.72 1.253-1.726 1.58-2.903a1.731 1.731 0 0 0 .33-2.503v-2.383c0-2.46-1.36-4.148-4.471-4.148-3.034 0-4.475 1.688-4.475 4.148v2.383a1.733 1.733 0 0 0 .327 2.503c.327 1.177.88 2.183 1.58 2.903v1.063c-.312 1.015-4.058 2.646-7.43 3.957a.758.758 0 0 0-.478.708v2.663a.75.75 0 0 0 .742.759h19.464a.748.748 0 0 0 .742-.759v-2.663a.758.758 0 0 0-.477-.708zM84.525 42.018c-3.372-1.31-7.117-2.941-7.433-3.957v-1.066c.7-.72 1.253-1.723 1.58-2.9a1.731 1.731 0 0 0 .33-2.502v-2.386c0-2.461-1.363-4.145-4.474-4.145-3.034 0-4.475 1.684-4.475 4.145v2.386c-.649.806-.45 1.95.33 2.502.324 1.177.88 2.18 1.577 2.9v1.066c-.313 1.016-4.058 2.646-7.427 3.957a.758.758 0 0 0-.478.708v2.664c0 .418.33.758.742.758h19.461A.75.75 0 0 0 85 45.39v-2.664a.756.756 0 0 0-.475-.708zM36.47 42.018c-3.372-1.31-7.117-2.941-7.433-3.957v-1.066c.7-.72 1.253-1.723 1.58-2.9a1.73 1.73 0 0 0 .327-2.502v-2.386c0-2.461-1.36-4.145-4.472-4.145-3.033 0-4.474 1.684-4.474 4.145v2.386c-.65.806-.45 1.95.33 2.502.324 1.177.88 2.18 1.577 2.9v1.066c-.313 1.016-4.058 2.646-7.427 3.957a.758.758 0 0 0-.478.708v2.664c0 .418.33.758.742.758h19.461a.75.75 0 0 0 .742-.758v-2.664a.756.756 0 0 0-.475-.708zM63.916 25.497A25.97 25.97 0 0 0 50.87 22a25.97 25.97 0 0 0-13.046 3.497M65.192 69.367c6.24-4.113 10.595-10.823 11.484-18.585-.889 7.762-5.243 14.472-11.484 18.585M36.547 69.367c-6.238-4.113-10.593-10.823-11.482-18.585.89 7.762 5.244 14.472 11.482 18.585"/>
    </g>
</svg>
