<svg width="102" height="102" viewBox="0 0 102 102" xmlns="http://www.w3.org/2000/svg">
    <g fill="none" fill-rule="evenodd" stroke-linecap="round" stroke-linejoin="round">
        <g stroke="#E5702A">
            <path d="M56.548 82.314h17.05a.98.98 0 0 0 .978-.98v-3.503a.985.985 0 0 0-.297-.706c-4.29-4.173-16.132-8.643-16.132-8.643-.014 0-.028.004-.04.004M44.484 68.487c-.02 0-.039-.005-.055-.005 0 0-11.747 4.376-16.131 8.643a.988.988 0 0 0-.298.706v3.503c0 .542.44.98.98.98h16.929M56.857 65.337c.11-.223.069-3.061.069-3.319 1.99-1.94 3.327-4.765 3.534-7.591h.032c1.942 0 2.496-2.822.735-3.658a11.74 11.74 0 0 0 .565-3.607C61.792 40.999 57.09 36 51.288 36c-5.8 0-10.5 4.999-10.5 11.162 0 1.264.2 2.477.563 3.607-1.765.838-1.205 3.658.733 3.658h.032c.204 2.79 1.514 5.573 3.46 7.51 0 .258-.045 3.183.07 3.404M54.743 69.745c1.134.533-.243 3.371-1.04 4.816a15.57 15.57 0 0 0-4.804.044c-.795-1.434-2.064-4.085-1.066-4.86 0 0 2.957-1.86 6.91 0zM53.154 77.465l.043.445.51 4.446M48.868 82.357l.549-4.851"/>
        </g>
        <path d="M17 49.522h5.912V85h56.173V49.522H85L53.522 18.044A3.567 3.567 0 0 0 51.003 17h-.006c-.944 0-1.853.375-2.52 1.044L17 49.522z" opacity=".1" stroke="#000"/>
    </g>
</svg>
