<svg width="102" height="102" viewBox="0 0 102 102" xmlns="http://www.w3.org/2000/svg">
    <g stroke="#000" fill="none" fill-rule="evenodd" stroke-linecap="round" stroke-linejoin="round">
        <path d="m35.639 35.616-6.993-6.969M33.293 40.262h-9.292M40.285 24.001v9.292M65.815 63.492l6.993 6.969M68.161 58.846h9.292M61.169 75.107v-9.292M51.442 36.849 61.579 26.71c3.615-3.615 9.527-3.615 13.142 0 3.612 3.615 3.612 9.527 0 13.141L59.937 54.636c-3.615 3.615-9.527 3.615-13.141 0"/>
        <path d="M49.99 64.582 39.852 74.72c-3.614 3.614-9.526 3.614-13.141 0-3.615-3.615-3.615-9.527 0-13.141l14.784-14.784c3.614-3.615 9.526-3.615 13.141 0"/>
    </g>
</svg>
