<svg width="102" height="102" viewBox="0 0 102 102" xmlns="http://www.w3.org/2000/svg">
    <g stroke="#e5702a" fill="none" fill-rule="evenodd" stroke-linecap="round" stroke-linejoin="round">
        <path d="M58.322 27.869a5.244 5.244 0 0 1-5.245 5.245 5.244 5.244 0 0 1-5.246-5.245 5.244 5.244 0 0 1 5.246-5.246 5.244 5.244 0 0 1 5.245 5.246h0zM39.737 80.326l1.537-20.807h.997c1.632 0 2.893-1.569 2.691-3.342l-1.739-15.233c-.338-2.975-2.646-5.207-5.382-5.207h-6.699c-2.735 0-5.043 2.232-5.382 5.207l-1.739 15.233c-.202 1.773 1.06 3.342 2.691 3.342h.997l1.537 20.807h10.491zM39.737 25.246a5.244 5.244 0 0 1-5.245 5.245 5.244 5.244 0 0 1-5.246-5.245A5.244 5.244 0 0 1 34.492 20a5.244 5.244 0 0 1 5.245 5.246h0zM46.8 63.275l1.031 14.429h10.492l.21-2.943M62.818 53.34l-1.299-10.386a5.246 5.246 0 0 0-5.206-4.595H49.84c-.614 0-1.199.115-1.747.312"/>
        <path d="M54.547 65.02c0-6.373 5.178-11.542 11.568-11.542 6.388 0 11.568 5.169 11.568 11.543s-5.18 11.542-11.568 11.542c-6.39 0-11.568-5.168-11.568-11.542h0z"/>
        <path d="m66.458 61.861 2.498-2.498c.891-.89 2.348-.89 3.239 0 .89.89.89 2.348 0 3.239l-3.643 3.643c-.891.891-2.348.891-3.24 0"/>
        <path d="m66.1 68.696-2.498 2.499c-.891.89-2.348.89-3.239 0a2.296 2.296 0 0 1 0-3.239l3.643-3.643c.891-.891 2.348-.891 3.24 0"/>
    </g>
</svg>
