<svg width="100" height="30" viewBox="0 0 102 102" xmlns="http://www.w3.org/2000/svg">
    <g stroke="#000" fill="none" fill-rule="evenodd" stroke-linecap="round" stroke-linejoin="round">
        <path d="M69.75 21.26c0 12.588-3.5 22.427-12.575 25.677-1.806.648-3.05 2.222-3.05 4.06v.006c0 1.838 1.244 3.412 3.05 4.06C66.25 58.313 69.75 68.217 69.75 80.74M32.25 21.26c0 12.588 3.5 22.427 12.575 25.677 1.806.648 3.05 2.222 3.05 4.06v.006c0 1.838-1.244 3.412-3.05 4.06C35.75 58.313 32.25 68.217 32.25 80.74M72.875 21.26h-43.75A3.129 3.129 0 0 1 26 18.13c0-1.728 1.4-3.13 3.125-3.13h43.75A3.129 3.129 0 0 1 76 18.13c0 1.728-1.4 3.13-3.125 3.13zM72.875 80.74h-43.75A3.129 3.129 0 0 0 26 83.87c0 1.728 1.4 3.13 3.125 3.13h43.75A3.129 3.129 0 0 0 76 83.87c0-1.728-1.4-3.13-3.125-3.13z"/>
    </g>
</svg>
