<svg width="102" height="102" viewBox="0 0 102 102" xmlns="http://www.w3.org/2000/svg">
    <g stroke="#243042" fill="none" fill-rule="evenodd" stroke-linecap="round" stroke-linejoin="round">
        <path d="M77.894 57.046A23.926 23.926 0 0 0 85 40c0-13.254-10.746-24-24-24S37 26.746 37 40c0 11.703 8.379 21.451 19.464 23.572M16 85l28.029-28.029"/>
        <g>
            <path d="M55.032 69.693c0-8.144 6.617-14.748 14.782-14.748 8.162 0 14.78 6.604 14.78 14.748 0 8.145-6.618 14.749-14.78 14.749-8.165 0-14.782-6.604-14.782-14.749h0z"/>
            <path d="m70.252 65.656 3.192-3.192a2.934 2.934 0 0 1 4.138 0 2.936 2.936 0 0 1 0 4.138l-4.655 4.656a2.934 2.934 0 0 1-4.138 0"/>
            <path d="m69.795 74.39-3.193 3.192a2.934 2.934 0 0 1-4.138 0 2.934 2.934 0 0 1 0-4.138l4.655-4.656a2.934 2.934 0 0 1 4.139 0"/>
        </g>
    </g>
</svg>
