<svg width="102" height="102" viewBox="0 0 102 102" xmlns="http://www.w3.org/2000/svg">
    <g stroke="currentColor" fill="currentColor" fill-rule="evenodd">
        <path d="M52.077 61.469 40.329 73.14c-7.122-4.088-11.933-11.771-11.933-20.555 0-13.06 10.63-23.687 23.68-23.687 13.06 0 23.685 10.627 23.685 23.687 0 8.858-4.89 16.597-12.114 20.658L52.077 61.47zm0-40.469C34.667 21 20.5 35.173 20.5 52.586c0 17.409 14.168 31.572 31.577 31.572 17.421 0 31.58-14.163 31.58-31.572C83.658 35.173 69.499 21 52.078 21z" fill="currentColor"/>
        <path fill="currentColor" d="M51.59 35.53 38.973 48.244l-.144 20.15 12.892-12.83 12.211 12.164.075-19.57z"/>
    </g>
</svg>
