<?xml version="1.0" encoding="UTF-8"?>
<svg width="19px" height="19px" viewBox="0 0 19 19" version="1.1" xmlns="http://www.w3.org/2000/svg" xmlns:xlink="http://www.w3.org/1999/xlink">
    <title>Icono / Tarea</title>
    <g id="Resultados" stroke="none" stroke-width="1" fill="none" fill-rule="evenodd" stroke-linecap="round" stroke-linejoin="round">
        <g id="Resultados-/-Agenda" transform="translate(-276.000000, -340.000000)" stroke="#E5702A" stroke-width="1.5">
            <g id="Group" transform="translate(12.000000, 258.000000)">
                <g transform="translate(263.000000, 81.000000)" id="Icono-/-Tarea">
                    <g id="Group-76" transform="translate(2.058824, 2.058824)">
                        <path d="M3.75163399,7.50326797 C5.10222222,10.157549 6.72480392,11.7707516 9.37908497,13.130719 L11.6394444,11.4237255 C11.8926797,11.1704902 12.2678431,11.0860784 12.5961111,11.1986275 C13.6465686,11.5456536 14.7814379,11.7332353 15.9444444,11.7332353 C16.4602941,11.7332353 16.8823529,12.1552941 16.8823529,12.6711438 L16.8823529,15.9444444 C16.8823529,16.4602941 16.4602941,16.8823529 15.9444444,16.8823529 C7.13748366,16.8823529 0,9.74486928 0,0.937908497 C0,0.422058824 0.422058824,0 0.937908497,0 L4.22058824,0 C4.73643791,0 5.15849673,0.422058824 5.15849673,0.937908497 C5.15849673,2.11029412 5.34607843,3.23578431 5.69310458,4.28624183 C5.79627451,4.6145098 5.72124183,4.98029412 5.45862745,5.2429085 L3.75163399,7.50326797 L3.75163399,7.50326797 Z" id="Stroke-70"></path>
                        <path d="M10.3169935,0 C13.9429477,0 16.8823529,2.93940523 16.8823529,6.56535948" id="Stroke-72"></path>
                        <path d="M10.3169935,3.75163399 C11.8711078,3.75163399 13.130719,5.0112451 13.130719,6.56535948" id="Stroke-74"></path>
                    </g>
                </g>
            </g>
        </g>
    </g>
</svg>