<?xml version="1.0" encoding="UTF-8"?>
<svg width="21px" height="21px" viewBox="0 0 21 21" version="1.1" xmlns="http://www.w3.org/2000/svg" xmlns:xlink="http://www.w3.org/1999/xlink">
    <title>Icono / Tarea Copy 2</title>
    <g id="Resultados" stroke="none" stroke-width="1" fill="none" fill-rule="evenodd" stroke-linecap="round" stroke-linejoin="round">
        <g id="Resultados-/-Agenda" transform="translate(-308.000000, -339.000000)" stroke="#E5702A" stroke-width="1.5">
            <g id="Group" transform="translate(12.000000, 258.000000)">
                <g transform="translate(296.000000, 81.000000)" id="Icono-/-Tarea-Copy-2">
                    <g id="Group-54" transform="translate(1.235294, 1.235294)">
                        <path d="M9.26470588,0 C4.14817136,0 0,4.14817136 0,9.26470588 C0,11.1788747 0.580856777,12.9568926 1.575,14.4336061 L0,18.5294118 L4.21262148,17.0245013 C5.66677749,17.9735294 7.39968031,18.5294118 9.26470588,18.5294118 C14.3812404,18.5294118 18.5294118,14.3812404 18.5294118,9.26470588 C18.5294118,4.14817136 14.3812404,0 9.26470588,0 L9.26470588,0 Z" id="Stroke-50"></path>
                        <path d="M7.25063939,11.2787724 C8.29956522,12.3276982 10.6076854,13.6956522 11.6815857,13.6956522 C12.7554859,13.6956522 13.6956522,12.7724041 13.6956522,12.084399 L13.6956522,11.2787724 C13.6956522,11.2787724 12.7055371,10.7921739 12.084399,10.4731458 C11.4632609,10.1541176 10.4731458,11.2787724 10.4731458,11.2787724 C10.4731458,11.2787724 9.34043478,10.951688 8.45907928,10.0703325 C7.57772379,9.18897698 7.25063939,8.05626598 7.25063939,8.05626598 C7.25063939,8.05626598 8.37529412,7.0661509 8.05626598,6.44501279 C7.73723785,5.82387468 7.25063939,4.83375959 7.25063939,4.83375959 L6.44501279,4.83375959 C5.75700767,4.83375959 4.83375959,5.77392583 4.83375959,6.84782609 C4.83375959,7.92172634 6.20171355,10.2298465 7.25063939,11.2787724 L7.25063939,11.2787724 Z" id="Stroke-52"></path>
                    </g>
                </g>
            </g>
        </g>
    </g>
</svg>